<?xml version="1.0" encoding="utf-8"?>
<!-- Generator: Adobe Illustrator 23.0.1, SVG Export Plug-In . SVG Version: 6.00 Build 0)  -->
<svg version="1.1" id="Слой_1" xmlns="http://www.w3.org/2000/svg" xmlns:xlink="http://www.w3.org/1999/xlink" x="0px" y="0px"
	 viewBox="0 0 95.1 67.9" style="enable-background:new 0 0 95.1 67.9;" xml:space="preserve">
<style type="text/css">
	.st0{fill:#C838F4;}
	.st1{fill:#38C8F4;}
	.st2{fill:#F8F8FF;}
</style>
<g>
	<path class="st0" d="M88.6,52.5h-4.8l-2,4.6h4.5v1.6c0,1.7-1.4,3-3,3h-3.5l-0.2,0.4c-0.4,1-1.3,1.8-2.3,2.2
		c-0.4,0.2-0.9,0.2-1.3,0.2c-0.6,0-1.3-0.2-1.9-0.5l-4.4-2.3H54.5v0.2c-0.4,1-1.3,1.8-2.3,2.1c-0.4,0.2-0.9,0.2-1.3,0.2
		c-0.6,0-1.3-0.2-1.8-0.4l-4-2.1H30.9l-0.2,0.4c-0.5,1-1.3,1.8-2.4,2.2c-0.4,0.1-0.8,0.2-1.2,0.2c-0.7,0-1.4-0.2-2-0.6l-3.8-2.3H8
		c-1.7,0-3-1.4-3-3c0-0.1,0-0.1,0-0.2l-0.2-1.3h8.6l-7.8-4.6H2.3c-0.6,0-1.3,0.3-1.7,0.7S-0.1,54.3,0,55l0.3,3.8
		c0.1,4.2,3.5,7.5,7.6,7.5h75.3c4.2,0,7.7-3.4,7.7-7.7v-3.9C90.9,53.5,89.9,52.5,88.6,52.5z"/>
	<path class="st0" d="M2.7,49.7h2.1L26,62.2c0.3,0.2,0.7,0.3,1,0.3c0.2,0,0.4,0,0.6-0.1c0.5-0.2,1-0.6,1.2-1.1l3.6-8.4L49.8,62
		c0.3,0.1,0.6,0.2,0.9,0.2c0.2,0,0.4,0,0.7-0.1c0.5-0.2,0.9-0.6,1.2-1.1l3.8-8.6L75,62.3c0.3,0.2,0.6,0.2,0.9,0.2
		c0.2,0,0.4,0,0.7-0.1c0.5-0.2,0.9-0.6,1.2-1.1l5-11.6h3.7l0,0c0,0,0,0,0.1,0s0.2,0,0.2,0c0.1,0,0.2,0,0.3,0c0.1,0,0.2-0.1,0.3-0.1
		c0.1,0,0.2,0,0.2-0.1c0.1,0,0.2-0.1,0.2-0.1c0.1,0,0.1-0.1,0.2-0.1c0.1-0.1,0.1-0.1,0.2-0.2s0.1-0.1,0.2-0.2s0.1-0.1,0.2-0.2
		s0.1-0.1,0.2-0.2c0-0.1,0.1-0.2,0.1-0.2c0-0.1,0.1-0.1,0.1-0.2s0.1-0.2,0.1-0.3s0.1-0.2,0.1-0.2c0-0.1,0-0.2,0-0.3s0-0.1,0-0.2l0,0
		l0,0c-0.4-11.4-9.5-20.3-20.9-20.3c-1.8,0-3.7,0.3-5.8,0.8c-2.8,0.7-4.8,1.8-5.9,2.5c-3.2-2.1-6.9-3.5-10.6-3.8V22
		c3.7-0.6,6.6-3.9,6.6-7.8S49.7,7,46,6.4V1.3C46,0.6,45.4,0,44.7,0s-1.3,0.6-1.3,1.3v5.1c-3.8,0.6-6.6,3.9-6.6,7.8s2.9,7.2,6.6,7.8
		v4.3c-2.8,0.1-5.6,0.8-8.5,2.1c-1.3,0.6-2.3,1.1-3.1,1.5c-3.3-2-7.1-3.1-11-3.1C9.4,26.8,0.3,35.7,0,47c0,0.7,0.3,1.4,0.8,1.9
		S2,49.7,2.7,49.7z M26.1,57.7l-13.5-8h17L26.1,57.7z M49.9,57.5l-15-7.8h18.4L49.9,57.5z M75,57.8l-15.2-8.1h18.7L75,57.8z
		 M42.6,14.6c-1.2,0-2.1-0.9-2.1-2.1s0.9-2.1,2.1-2.1c1.2,0,2.1,0.9,2.1,2.1C44.8,13.7,43.8,14.6,42.6,14.6z M20.8,32
		c3.7,0,7.3,1.4,10.1,3.8c1.7,1.5,3.6,4.1,3.6,4.1c0.9,1.2,2.5,1.4,3.7,0.5s1.4-2.5,0.5-3.7c-0.1-0.1-1.2-1.6-2.6-3.2
		c0.3-0.1,0.5-0.2,0.8-0.4c2.6-1.1,5.1-1.7,7.5-1.7c5.4,0,11,3.1,14.4,7.9c0.5,0.7,1.3,1.1,2.2,1.1c0.5,0,1-0.2,1.5-0.5
		c1.2-0.8,1.5-2.5,0.7-3.7c-0.7-1-1.4-1.8-2.2-2.7c0.8-0.4,1.8-0.7,2.9-1.1c1.7-0.4,3.1-0.6,4.4-0.6c7.5,0,13.7,5.3,15.2,12.4H5.6
		C7,37.3,13.3,32,20.8,32z"/>
</g>
<g>
	<path class="st1" d="M92.8,54.2H88l-2,4.6h4.5v1.6c0,1.7-1.4,3-3,3H84l-0.2,0.4c-0.4,1-1.3,1.8-2.3,2.2c-0.4,0.2-0.9,0.2-1.3,0.2
		c-0.6,0-1.3-0.2-1.9-0.5l-4.4-2.3H58.7v0.2c-0.4,1-1.3,1.8-2.3,2.1c-0.4,0.2-0.9,0.2-1.3,0.2c-0.6,0-1.3-0.2-1.8-0.4l-4-2.1H35.1
		l-0.2,0.4c-0.5,1-1.3,1.8-2.4,2.2c-0.4,0.1-0.8,0.2-1.2,0.2c-0.7,0-1.4-0.2-2-0.6l-3.8-2.3H12.2c-1.7,0-3-1.4-3-3
		c0-0.1,0-0.1,0-0.2l-0.1-1.4h8.5l-7.8-4.6H6.5c-0.6,0-1.3,0.3-1.7,0.7s-0.7,1.1-0.6,1.8l0.3,3.8c0.1,4.2,3.5,7.5,7.6,7.5h75.3
		c4.2,0,7.7-3.4,7.7-7.7v-3.9C95.1,55.2,94.1,54.2,92.8,54.2z"/>
	<path class="st1" d="M6.9,51.4H9l21.2,12.5c0.3,0.2,0.7,0.3,1,0.3c0.2,0,0.4,0,0.6-0.1c0.5-0.2,1-0.6,1.2-1.1l3.6-8.4L54,63.7
		c0.3,0.1,0.6,0.2,0.9,0.2c0.2,0,0.4,0,0.7-0.1c0.5-0.2,0.9-0.6,1.2-1.1l3.8-8.6L79.2,64c0.3,0.2,0.6,0.2,0.9,0.2
		c0.2,0,0.4,0,0.7-0.1c0.5-0.2,0.9-0.6,1.2-1.1l5-11.6h3.7l0,0c0,0,0,0,0.1,0s0.2,0,0.2,0c0.1,0,0.2,0,0.3,0c0.1,0,0.2-0.1,0.3-0.1
		c0.1,0,0.2,0,0.2-0.1c0.1,0,0.2-0.1,0.2-0.1c0.1,0,0.1-0.1,0.2-0.1c0.1-0.1,0.1-0.1,0.2-0.2s0.1-0.1,0.2-0.2s0.1-0.1,0.2-0.2
		s0.1-0.1,0.2-0.2c0-0.1,0.1-0.2,0.1-0.2c0-0.1,0.1-0.1,0.1-0.2s0.1-0.2,0.1-0.3s0.1-0.2,0.1-0.2c0-0.1,0-0.2,0-0.3s0-0.1,0-0.2l0,0
		l0,0C93.1,37.4,84,28.6,72.7,28.6c-1.8,0-3.7,0.3-5.8,0.8c-2.8,0.7-4.8,1.8-5.9,2.5c-3.2-2.1-6.9-3.5-10.6-3.8v-4.2
		c3.7-0.6,6.6-3.9,6.6-7.8s-2.9-7.2-6.6-7.8V3.2c0-0.7-0.6-1.3-1.3-1.3s-1.5,0.5-1.5,1.2v5.1C43.8,8.8,41,12.1,41,16
		s2.9,7.2,6.6,7.8v4.3c-2.8,0.1-5.6,0.8-8.5,2.1c-1.3,0.6-2.3,1.1-3.1,1.5c-3.3-2-7.1-3.1-11-3.1c-11.4,0-20.5,8.9-20.8,20.2
		c0,0.7,0.3,1.4,0.8,1.9S6.2,51.4,6.9,51.4z M30.3,59.4l-13.5-8h17L30.3,59.4z M54.1,59.2l-15-7.8h18.4L54.1,59.2z M79.2,59.5
		L64,51.4h18.7L79.2,59.5z M46.8,16.3c-1.2,0-2.1-0.9-2.1-2.1s0.9-2.1,2.1-2.1c1.2,0,2.1,0.9,2.1,2.1C49,15.4,48,16.3,46.8,16.3z
		 M25,33.7c3.7,0,7.3,1.4,10.1,3.8c1.7,1.5,3.6,4.1,3.6,4.1c0.9,1.2,2.5,1.4,3.7,0.5s1.4-2.5,0.5-3.7c-0.1-0.1-1.2-1.6-2.6-3.2
		c0.3-0.1,0.5-0.2,0.8-0.4c2.6-1.1,5.1-1.7,7.5-1.7c5.4,0,11,3.1,14.4,7.9c0.5,0.7,1.3,1.1,2.2,1.1c0.5,0,1-0.2,1.5-0.5
		c1.2-0.8,1.5-2.5,0.7-3.7c-0.7-1-1.4-1.8-2.2-2.7c0.8-0.4,1.8-0.7,2.9-1.1c1.7-0.4,3.1-0.6,4.4-0.6c7.5,0,13.7,5.3,15.2,12.4H9.8
		C11.2,39,17.5,33.7,25,33.7z"/>
</g>
<g>
	<path class="st2" d="M90.8,53.2H86l-2,4.6h4.5v1.6c0,1.7-1.4,3-3,3H82l-0.2,0.4c-0.4,1-1.3,1.8-2.3,2.2c-0.4,0.2-0.9,0.2-1.3,0.2
		c-0.6,0-1.3-0.2-1.9-0.5l-4.4-2.3H56.7l-0.1,0.2c-0.4,1-1.3,1.8-2.3,2.1c-0.4,0.2-0.9,0.2-1.3,0.2c-0.6,0-1.3-0.2-1.8-0.4l-4-2.1
		H33.1l-0.2,0.4c-0.5,1-1.3,1.8-2.4,2.2c-0.4,0.1-0.8,0.2-1.2,0.2c-0.7,0-1.4-0.2-2-0.6l-3.8-2.3H10.1c-1.7,0-3-1.4-3-3
		c0-0.1,0-0.1,0-0.2L7,57.7h8.6l-7.8-4.6H4.5c-0.6,0-1.3,0.3-1.7,0.7s-0.7,1.1-0.6,1.8l0.3,3.8c0.1,4.2,3.5,7.5,7.6,7.5h75.3
		c4.2,0,7.7-3.4,7.7-7.7v-3.9C93.1,54.2,92.1,53.2,90.8,53.2z"/>
	<path class="st2" d="M4.9,50.5H7L28.2,63c0.3,0.2,0.7,0.3,1,0.3c0.2,0,0.4,0,0.6-0.1c0.5-0.2,1-0.6,1.2-1.1l3.6-8.4L52,62.8
		c0.3,0.1,0.6,0.2,0.9,0.2c0.2,0,0.4,0,0.7-0.1c0.5-0.2,0.9-0.6,1.2-1.1l3.8-8.6l18.6,9.9c0.3,0.2,0.6,0.2,0.9,0.2
		c0.2,0,0.4,0,0.7-0.1c0.5-0.2,0.9-0.6,1.2-1.1l5-11.6h3.7l0,0c0,0,0,0,0.1,0s0.2,0,0.2,0c0.1,0,0.2,0,0.3,0c0.1,0,0.2-0.1,0.3-0.1
		c0.1,0,0.2,0,0.2-0.1c0.1,0,0.2-0.1,0.2-0.1c0.1,0,0.1-0.1,0.2-0.1c0-0.2,0.1-0.2,0.1-0.3c0.1-0.1,0.1-0.1,0.2-0.2s0.1-0.1,0.2-0.2
		s0.1-0.1,0.2-0.2c0-0.1,0.1-0.2,0.1-0.2c0-0.1,0.1-0.1,0.1-0.2s0.1-0.2,0.1-0.3s0.1-0.2,0.1-0.2c0-0.1,0-0.2,0-0.3s0-0.1,0-0.2l0,0
		l0,0C91,36.4,81.9,27.6,70.6,27.6c-1.8,0-3.7,0.3-5.8,0.8c-2.8,0.7-4.8,1.8-5.9,2.5c-3.2-2.1-6.9-3.5-10.6-3.8v-4.3
		c3.7-0.6,6.6-3.9,6.6-7.8S52,7.8,48.3,7.2V2.1c0-0.7-0.6-1.3-1.3-1.3s-1.3,0.6-1.3,1.3v5.1c-3.8,0.6-6.6,3.9-6.6,7.8
		s2.9,7.2,6.6,7.8v4.3c-2.8,0.1-5.6,0.8-8.5,2.1c-1.3,0.6-2.3,1.1-3.1,1.5c-3.3-2-7.1-3.1-11-3.1c-11.4,0-20.5,8.9-20.8,20.2
		c0,0.7,0.3,1.4,0.8,1.9C3.5,50.2,4.2,50.5,4.9,50.5z M28.3,58.4l-13.5-8h17L28.3,58.4z M52.1,58.3l-15-7.8h18.4L52.1,58.3z
		 M77.2,58.5L62,50.4h18.7L77.2,58.5z M44.8,15.4c-1.2,0-2.1-0.9-2.1-2.1s0.9-2.1,2.1-2.1c1.2,0,2.1,0.9,2.1,2.1
		C47,14.4,46,15.4,44.8,15.4z M23,32.8c3.7,0,7.3,1.4,10.1,3.8c1.7,1.5,3.6,4.1,3.6,4.1c0.9,1.2,2.5,1.4,3.7,0.5s1.4-2.5,0.5-3.7
		c-0.1-0.1-1.2-1.6-2.6-3.2c0.3-0.1,0.5-0.2,0.8-0.4c2.6-1.1,5.1-1.7,7.5-1.7c5.4,0,11,3.1,14.4,7.9c0.5,0.7,1.3,1.1,2.2,1.1
		c0.5,0,1-0.2,1.5-0.5c1.2-0.8,1.5-2.5,0.7-3.7c-0.7-1-1.4-1.8-2.2-2.7c0.8-0.4,1.8-0.7,2.9-1.1c1.7-0.4,3.1-0.6,4.4-0.6
		c7.5,0,13.7,5.3,15.2,12.4H7.8C9.2,38,15.4,32.8,23,32.8z"/>
</g>
</svg>
