<svg id="Layer_1" height="512" viewBox="0 0 512 512" width="512" xmlns="http://www.w3.org/2000/svg" xmlns:xlink="http://www.w3.org/1999/xlink" data-name="Layer 1"><linearGradient id="linear-gradient" gradientUnits="userSpaceOnUse" x1="256" x2="256" y1="434" y2="89.228"><stop offset=".322" stop-color="#a163f5"/><stop offset=".466" stop-color="#b074ee"/><stop offset=".752" stop-color="#d8a1dd"/><stop offset=".898" stop-color="#efbad3"/></linearGradient><linearGradient id="linear-gradient-5" x1="136.718" x2="136.718" xlink:href="#linear-gradient" y1="434" y2="89.228"/><linearGradient id="linear-gradient-6" x1="138.329" x2="138.329" xlink:href="#linear-gradient" y1="434" y2="89.228"/><g fill="url(#linear-gradient)"><path d="m188.382 421h135.236a10.382 10.382 0 0 0 10.382-10.382v-146.236a10.382 10.382 0 0 0 -10.382-10.382h-135.236a10.382 10.382 0 0 0 -10.382 10.382v146.236a10.382 10.382 0 0 0 10.382 10.382zm1.618-155h132v143h-132z"/><path d="m293.57 301h-75.14a6 6 0 0 0 0 12h75.14a6 6 0 0 0 0-12z"/><path d="m293.57 331h-75.14a6 6 0 0 0 0 12h75.14a6 6 0 0 0 0-12z"/><path d="m293.57 362h-75.14a6 6 0 0 0 0 12h75.14a6 6 0 0 0 0-12z"/></g><path d="m136.755 213.33h.181a6 6 0 0 0 5.819-6.175l-.08-2.695a6 6 0 0 0 -5.994-5.822h-.181a6 6 0 0 0 -5.819 6.174l.08 2.7a6 6 0 0 0 5.994 5.818z" fill="url(#linear-gradient-5)"/><path d="m137.156 220.687a6 6 0 0 0 -5.818 6.175l1.987 66.682a6 6 0 0 0 5.994 5.821h.182a6 6 0 0 0 5.818-6.175l-1.987-66.682a6.009 6.009 0 0 0 -6.176-5.821z" fill="url(#linear-gradient-6)"/><path d="m415.571 112.556-16.233-69.145a49.587 49.587 0 0 0 -48.453-38.411h-189.77a49.633 49.633 0 0 0 -48.494 38.41l-16.192 69.143a30.079 30.079 0 0 0 -25.429 29.754v30.126a5.507 5.507 0 0 0 5.836 5.567h22.086l19.09 292.665a38.955 38.955 0 0 0 38.782 36.335h197.27a38.956 38.956 0 0 0 38.783-36.329l19.134-292.671h23.183a5.507 5.507 0 0 0 5.836-5.567v-30.126a30.076 30.076 0 0 0 -25.429-29.751zm-81.247-95.556-12.538 45h-131.572l-12.538-45zm-210.024 29.057a37.586 37.586 0 0 1 36.815-29.057h4.113l13.746 49.611a10.2 10.2 0 0 0 10.008 7.389h134.036a10.2 10.2 0 0 0 10.008-7.39l13.746-49.61h4.113a37.586 37.586 0 0 1 36.815 29.057l15.542 65.943h-294.484zm256.572 423.831a26.927 26.927 0 0 1 -26.808 25.112h-197.27a26.927 26.927 0 0 1 -26.808-25.116l-19.038-291.884h289.008zm48.128-303.888h-346v-23.693a18.159 18.159 0 0 1 17.937-18.307h310.126a18.159 18.159 0 0 1 17.937 18.307z" fill="url(#linear-gradient)"/></svg>